<?xml version="1.0" encoding="UTF-8" standalone="no"?>
<!DOCTYPE svg PUBLIC "-//W3C//DTD SVG 1.1//EN" "http://www.w3.org/Graphics/SVG/1.1/DTD/svg11.dtd">
<svg width="100%" height="100%" viewBox="0 0 473 112" version="1.1" xmlns="http://www.w3.org/2000/svg" xmlns:xlink="http://www.w3.org/1999/xlink" xml:space="preserve" xmlns:serif="http://www.serif.com/" style="fill-rule:evenodd;clip-rule:evenodd;stroke-linejoin:round;stroke-miterlimit:2;">
    <g transform="matrix(1,0,0,1,-503,-462)">
        <g id="BISHOPS">
            <g transform="matrix(12.8967,0,0,1.02891,-10303.6,31.9576)">
                <rect x="837.99" y="446.227" width="36.582" height="12.923" style="fill:rgb(240,78,37);"/>
            </g>
            <g transform="matrix(2.34893e-17,0.383609,-1.36633,8.36638e-17,1462.2,202.567)">
                <rect x="837.99" y="446.227" width="36.582" height="12.923" style="fill:rgb(240,78,37);"/>
            </g>
            <g transform="matrix(1,0,0,1,133.425,82.8974)">
                <g transform="matrix(1.15244,0,0,1,-57.133,0)">
                    <g transform="matrix(111.025,0,0,111.025,442.503,451.887)">
                    </g>
                    <text x="374.778px" y="451.887px" style="font-family:'Dubai-Bold', 'Dubai', sans-serif;font-weight:700;font-size:111.025px;fill:rgb(240,78,37);">B</text>
                </g>
            </g>
            <g transform="matrix(1,0,0,1,232.616,-43.2427)">
                <g transform="matrix(1.15244,0,0,1,-52.8117,0)">
                    <g transform="matrix(111.025,0,0,111.025,378.073,578.089)">
                    </g>
                    <text x="346.431px" y="578.089px" style="font-family:'Dubai-Bold', 'Dubai', sans-serif;font-weight:700;font-size:111.025px;fill:rgb(240,78,37);">I</text>
                </g>
            </g>
            <g transform="matrix(0.916571,0,0,0.879122,137.946,25.8121)">
                <g transform="matrix(1.15244,0,0,1,-77.4966,0)">
                    <g transform="matrix(111.025,0,0,111.025,582.411,578.089)">
                    </g>
                    <text x="508.358px" y="578.089px" style="font-family:'Arial-BoldMT', 'Arial', sans-serif;font-weight:700;font-size:111.025px;fill:rgb(240,78,37);">S</text>
                </g>
            </g>
            <g transform="matrix(0.916571,0,0,0.888792,425.982,21.0033)">
                <g transform="matrix(1.15244,0,0,1,-77.4966,0)">
                    <g transform="matrix(111.025,0,0,111.025,582.411,578.089)">
                    </g>
                    <text x="508.358px" y="578.089px" style="font-family:'Arial-BoldMT', 'Arial', sans-serif;font-weight:700;font-size:111.025px;fill:rgb(240,78,37);">S</text>
                </g>
            </g>
            <g transform="matrix(0.80139,0,0,1,289.28,-149.858)">
                <g transform="matrix(1.15244,0,0,1,-72.8201,0)">
                    <g transform="matrix(111.025,0,0,111.025,557.619,684.876)">
                    </g>
                    <text x="477.681px" y="684.876px" style="font-family:'Dubai-Bold', 'Dubai', sans-serif;font-weight:700;font-size:111.025px;fill:rgb(240,78,37);">H</text>
                </g>
            </g>
            <g transform="matrix(0.747531,0,0,1,317.486,-149.858)">
                <g transform="matrix(1.15244,0,0,1,-72.8201,0)">
                    <g transform="matrix(111.025,0,0,111.025,557.619,684.876)">
                    </g>
                    <text x="477.681px" y="684.876px" style="font-family:'Dubai-Bold', 'Dubai', sans-serif;font-weight:700;font-size:111.025px;fill:rgb(240,78,37);">H</text>
                </g>
            </g>
            <g transform="matrix(1,0,0,0.968212,56.1658,-112.091)">
                <g transform="matrix(1.15244,0,0,1,-104.135,0)">
                    <g transform="matrix(111.025,0,0,111.025,763.704,667.402)">
                    </g>
                    <text x="683.1px" y="667.402px" style="font-family:'Dubai-Bold', 'Dubai', sans-serif;font-weight:700;font-size:111.025px;fill:rgb(240,78,37);">O</text>
                </g>
            </g>
            <g transform="matrix(1,0,0,0.862654,-59.6451,-65.9946)">
                <g transform="matrix(1.15244,0,0,1,-134.977,0)">
                    <g transform="matrix(111.025,0,0,111.025,949.362,685.264)">
                    </g>
                    <text x="885.412px" y="685.264px" style="font-family:'Dubai-Bold', 'Dubai', sans-serif;font-weight:700;font-size:111.025px;fill:rgb(240,78,37);">P</text>
                </g>
            </g>
            <g transform="matrix(0.200054,0,0,0.200054,536.565,449.531)">
                <g transform="matrix(1.15244,0,0,1,-81.6801,0)">
                    <g transform="matrix(111.025,0,0,111.025,1359.66,619.642)">
                    </g>
                    <text x="535.8px" y="619.642px" style="font-family:'ArialMT', 'Arial', sans-serif;font-size:111.025px;fill:rgb(240,78,37);">C<tspan x="613.869px 691.939px 757.647px 829.59px 858.327px 887.064px 915.801px 944.537px 973.274px 1051.34px 1135.59px 1195.23px 1279.48px " y="619.642px 619.642px 619.642px 619.642px 619.642px 619.642px 619.642px 619.642px 619.642px 619.642px 619.642px 619.642px 619.642px ">UTS  /  COLOR</tspan></text>
                </g>
            </g>
        </g>
    </g>
</svg>
